<svg height="480pt" viewBox="0 0 480 480.024" width="480pt" xmlns="http://www.w3.org/2000/svg">
  <path fill="#FF5722" d="m476.378906 198.679688c-1.859375-11.25-4.625-22.332032-8.269531-33.136719-.90625-2.78125-1.890625-5.664063-2.855469-8.390625-.96875-2.726563-1.984375-5.449219-3.089844-8-1.167968-2.914063-2.398437-5.824219-3.742187-8.71875-1.242187-2.738282-2.488281-5.386719-3.816406-8-1.351563-2.714844-4.121094-4.429688-7.152344-4.433594h-23.441406v-72c-.039063-30.910156-25.085938-55.9609375-56-56-30.910157.0390625-55.960938 25.089844-56 56v72h-16v-72c-.039063-30.910156-25.085938-55.9609375-56-56-30.910157.0390625-55.960938 25.089844-56 56v72h-151.4375c-3.03125 0-5.800781 1.714844-7.152344 4.425781-1.328125 2.652344-2.578125 5.300781-3.800781 8-1.335938 2.917969-2.59375 5.832031-3.65625 8.496094-1.207032 2.765625-2.242188 5.453125-3.128906 8-9.863282 26.582031-14.882813 54.722656-14.8242192 83.078125 0 4.152344.0898432 8.304688.4023432 11.816406l.09375 3.199219c.25 4.488281.664063 8.871094 1.242188 13.824219.390625 3.144531.796875 6.398437 1.335938 9.433594.535156 3.03125 1.015624 6.078124 1.597656 8.550781.257812 1.550781.59375 3.105469.898437 4.449219.125.664062.246094 1.238281.421875 1.878906.511719 2.503906 1.152344 5.070312 1.777344 7.496094.527344 2.136718 1.0625 4.253906 1.6875 6.121093l1.191406 4.054688.34375 1.015625c1.03125 3.433594 2.226563 6.785156 3.59375 10.648437 1.328125 3.550781 2.65625 7.023438 4.117188 10.398438 4.28125 10.320312 9.339844 20.304687 15.128906 29.855469 3.578125 6.085937 7.503906 12.085937 11.769531 17.992187l1.464844 1.929687c1.734375 2.496094 3.605469 4.902344 5.597656 7.199219 1.191407 1.640625 2.472657 3.199219 3.59375 4.464844 1.117188 1.265625 2.183594 2.625 3.558594 4.105469.28125.277344.542969.597656 1.039063 1.167968 2.121093 2.460938 4.417968 4.925782 6.617187 7.125 2.527344 2.699219 5.054687 5.21875 7.746094 7.664063l.199219.203125c2.085937 2.09375 4.175781 4 6.285156 5.773438 6.152344 5.28125 11.371094 9.449218 16.800781 13.402343 1.457031 1.0625 2.914063 2.125 4.359375 3.125l.425781.28125c1.976563 1.464844 3.953125 2.832031 5.480469 3.734375l1.078125.722656 4.34375-6.722656-3.503906 7.289063c2.945312 1.929687 6.050781 3.777343 8.921875 5.402343 2.574218 1.59375 5.226562 3.058594 7.953125 4.382813.824219.511719 1.6875.960937 2.582031 1.34375 1.773438 1.019531 3.601562 1.9375 5.480469 2.75.714843.441406 1.476562.800781 2.273437 1.074219 1.132813.566406 2.320313 1.160156 3.0625 1.441406 4.800782 2.222656 9.761719 4.292969 15.328125 6.398438l.960938.34375c1.855469.664062 3.664062 1.320312 5.597656 1.929687.535156.230469 1.085937.425781 1.648437.582031 2.226563.800782 4.570313 1.527344 6.648438 2.121094 3.726562 1.191406 7.480469 2.214844 11.007812 2.992188 3.816407 1.007812 7.632813 1.863281 11.320313 2.519531s7.566406 1.390625 11.375 1.984375c3.808594.589844 7.777344 1.070312 11.640625 1.398437 8 .800781 15.929688 1.160157 23.550781 1.160157 2.953125 0 5.992188-.078126 9.011719-.167969 4.628906-.160157 9.246094-.496094 13.871094-.910157 2.488281-.25 4.886718-.503906 7.375-.800781l.449218-.074219c1.125-.089843 2.246094-.242187 3.359376-.453124.46875-.023438.9375-.089844 1.398437-.191407 2.402344-.320312 4.90625-.722656 7.394531-1.257812.78125-.078125 1.554688-.214844 2.320313-.40625 2.441406-.375 4.859375-.886719 7.246093-1.539063 1.296876-.199218 2.558594-.503906 4-.871094 2.511719-.609374 5.023438-1.222656 6.679688-1.792968 1.351562-.296875 2.6875-.660156 4-1.09375 1.964844-.476563 3.90625-1.058594 5.808594-1.746094.722656-.175781 1.429687-.414062 2.113281-.710938 3.015625-.960937 5.917969-1.992187 8.367187-2.929687.851563-.234375 1.683594-.527344 2.496094-.878906 1.292969-.429688 2.558594-.945313 3.78125-1.542969 3.128906-1.175781 6.179688-2.527344 8.738282-3.71875 2.40625-.929688 4.738281-2.03125 6.984374-3.296875 3.351563-1.535156 6.605469-3.199219 9.597657-4.929687 6.183593-3.324219 12.191406-6.964844 18-10.910157 3.019531-1.898437 6.019531-4.039062 8.664062-6.082031 2.921875-2.046875 5.832031-4.277344 8.320313-6.398438 2.816406-2.128906 5.640625-4.527343 8.136718-6.792968 2.496094-2.261719 5.160157-4.480469 7.769532-7.078125 2.917968-2.847657 5.839844-5.6875 8.359375-8.449219 2.09375-2.097656 3.917969-4.097656 5.832031-6.359375l1.808594-2.160156c1.808594-1.917969 3.519531-3.925781 5.128906-6.015625l.796875-1.050782c.617187-.796874 1.234375-1.542968 1.601563-2.078124 1.601562-2.007813 3.078124-4 4.574218-6.078126 2.007813-2.746093 4-5.601562 5.648438-8.136718 2.085937-2.921875 4.019531-5.949219 5.792968-9.074219 1.945313-3.101563 3.695313-6.191406 5.457032-9.453125l1.359375-2.601562c.871093-1.671876 1.75-3.335938 2.597656-5.089844.675781-1.335938 1.339844-2.671875 1.824219-3.773438.800781-1.601562 1.601562-3.25 2.160156-4.703125l.464844-1.113281c.570312-1.003906 1.066406-2.050781 1.480468-3.128906 1.382813-3.40625 2.761719-6.824219 4-10.152344 1.128907-2.855469 2.160157-5.800781 2.878907-8.269531 1.28125-3.515625 2.3125-7.105469 3.203125-10.441407 1.015625-3.382812 1.933594-6.855468 2.839844-10.886718.847656-3.914063 1.710937-7.839844 2.398437-11.523438.679687-3.253906 1.113281-6.582031 1.519531-9.765625 1.585938-10.976562 2.371094-22.054687 2.351563-33.144531 0-2.800781-.078125-5.511719-.160157-8.230469-.339843-11.101562-1.5-22.160156-3.472656-33.089843zm-12.367187 41.320312c-.03125 7.808594-.488281 15.609375-1.367188 23.367188-11.890625-1.636719-23.113281-6.476563-32.464843-14-14.480469-11.484376-32.484376-17.621094-50.96875-17.367188-6.457032-.035156-12.898438.660156-19.199219 2.078125v-58.078125h94.496093c1.601563 5.171875 2.984376 10.507812 4.152344 16h-26.648437v16h29.535156c.800781 5.40625 1.386719 10.753906 1.753906 16h-15.289062v16zm-88-112h-16v-72c0-4.417969 3.582031-8 8-8 2.160156-.003906 4.222656.882812 5.703125 2.457031 1.488281 1.457031 2.316406 3.460938 2.296875 5.542969zm67.839843 19.078125c1.234376 2.691406 2.402344 5.371094 3.554688 8.296875.679688 1.546875 1.222656 3.089844 1.796875 4.625h-89.191406v-16h82.402343c.496094 1.015625.964844 2.039062 1.4375 3.078125zm-115.839843-91.078125c.039062-22.074219 17.925781-39.960938 40-40 22.082031.027344 39.972656 17.917969 40 40v72h-16v-72c-.066407-13.226562-10.773438-23.933594-24-24-13.253907 0-24 10.746094-24 24v183.734375c-5.492188 2.839844-10.769531 6.074219-15.792969 9.679687l-.207031.1875zm-80 72h-16v-72c0-4.417969 3.582031-8 8-8 2.160156-.003906 4.222656.882812 5.703125 2.457031 1.488281 1.457031 2.316406 3.460938 2.296875 5.542969zm-16 80h80v16h-80zm80-16h-80v-16h80zm-80 48h80v19.070312c-8.097657 3.480469-16.851563 5.160157-25.664063 4.929688-15.238281.289062-30.082031-4.882812-41.839844-14.585938-3.855468-2.660156-7.933593-5.414062-12.496093-7.941406zm80-80h-80v-16h80zm-100.238281-132.289062c7.453124-7.539063 17.632812-11.761719 28.238281-11.710938 22.082031.027344 39.972656 17.917969 40 40v72h-16v-72c-.066407-13.226562-10.773438-23.933594-24-24-13.253907 0-24 10.746094-24 24v178.894531c-5.230469-1.410156-10.589844-2.28125-16-2.597656v-176.296875c-.046875-10.628906 4.191406-20.824219 11.761719-28.289062zm-27.761719 116.289062v16h-153.246094c.582031-1.601562 1.199219-3.144531 1.957031-4.871094 1.074219-2.679687 2.21875-5.359375 3.457032-8.074218.472656-1.03125.9375-2.046876 1.410156-3.054688zm-158.503907 32h158.503907v56.480469c-15.105469 1.660156-29.441407 7.527343-41.375 16.933593-11.753907 9.695313-26.589844 14.871094-41.824219 14.585938-15.242188.292969-30.082031-4.878906-41.839844-14.585938-12.25-9.675781-27.046875-15.597656-42.59375-17.039062.597656-19.105469 3.667969-38.054688 9.128906-56.375zm384.480469 209.808594-2.175781 2.566406c-1.535156 1.824219-3.0625 3.496094-5.046875 5.488281-2.5625 2.785157-5.257813 5.417969-8.257813 8.320313-2.136718 2.144531-4.359374 4.144531-6.824218 6.207031-2.464844 2.066406-4.839844 4.25-7.632813 6.402344-2.460937 2.070312-4.980469 4-7.789062 6-2.511719 1.925781-5.105469 3.773437-7.929688 5.550781-5.496093 3.746094-11.1875 7.203125-17.046875 10.351562-2.816406 1.601563-5.601562 3.039063-9.097656 4.65625-1.925781 1.074219-3.921875 2.019532-5.976562 2.832032-2.644532 1.199218-5.351563 2.402344-8.703126 3.695312-1.105468.523438-2.238281.984375-3.390624 1.394532-.417969.183593-.800782.300781-1.808594.613281-2.816406 1.066406-5.601563 2.066406-8.527344 2.96875-.296875.097656-.59375.207031-.871094.328125-.335937.082031-.664062.183594-.984375.304687-1.597656.585938-3.226562 1.078125-4.882812 1.464844-.277344.0625-.550781.152344-.796875.238281-1.050782.355469-2.121094.652344-3.203125.886719-2.046875.664063-4.175781 1.167969-6.613281 1.769531-.851563.234375-1.714844.417969-2.585938.550782-.378906.046874-.75.125-1.121094.226562-2.007812.574219-4.054687 1.011719-6.125 1.304688-.277344.054687-.542968.136718-.800781.246093-.597656 0-1.191406.066407-1.777344.191407-2.230469.503906-4.480469.863281-6.863281 1.25-.535156 0-1.074219.054687-1.601562.160156-.832032.164062-1.675782.277344-2.527344.335937-.425782.027344-.847656.089844-1.261719.183594-2.175781.277344-4.28125.503906-6.402344.710937-4.253906.390626-8.589843.695313-12.863281.847657-10.214844.320312-20.4375.011719-30.617188-.925781-3.589843-.304688-7.199218-.800782-10.671874-1.296876-3.46875-.496093-7.140626-1.167968-10.847657-1.890624-3.382812-.597657-6.773437-1.359376-10.453125-2.328126-3.371094-.757812-6.664062-1.652343-10.1875-2.773437-2.039062-.578125-4.15625-1.234375-6.132812-1.96875-.21875-.082031-.441406-.152344-.664063-.207031-.285156-.128906-.574219-.238282-.875-.328125-1.871093-.585938-3.613281-1.214844-5.40625-1.863281l-.902343-.320313c-5.082032-1.882813-9.664063-3.785156-14.472657-6.015625-.734375-.308594-1.453125-.652344-2.152343-1.035156l-.738282-.367188c-.300781-.148437-.609375-.273437-.925781-.382812-.363281-.226563-.742187-.421875-1.136719-.585938-1.6875-.699218-3.328125-1.5-4.917968-2.398437-.601563-.261719-1.179688-.566407-1.738282-.910157-.289062-.183593-.585937-.34375-.894531-.488281-2.421875-1.167969-4.777344-2.464843-7.058594-3.890625-2.816406-1.597656-5.597656-3.253906-8-4.800781l-2.214843-1.476563c-1.601563-.992187-3.273438-2.136718-4.910157-3.355468-.183593-.132813-.386719-.269532-.585937-.390625l-.136719-.09375c-1.3125-.898438-2.621094-1.875-4.382813-3.203125-4.695312-3.398438-9.601562-7.3125-15.464843-12.367188-.269531-.222656-.503907-.472656-.800781-.703125 3.191406.332031 6.394531.503907 9.601562.511719 18.484375.269531 36.492188-5.886719 50.945312-17.414062 11.761719-9.703126 26.609376-14.878907 41.855469-14.585938 15.21875-.289062 30.035157 4.878906 41.773438 14.566406 29.988281 23.21875 71.886719 23.21875 101.875 0 11.796875-9.703125 26.675781-14.867187 41.949219-14.566406 11.289062-.378906 22.449218 2.488281 32.152343 8.265625-.445312.535156-.847656.972656-1.375 1.542969zm28.183594-41.320313-1.351563 2.589844c-1.527343 2.816406-3.128906 5.601563-5.046874 8.738281-1.613282 2.828125-3.371094 5.574219-5.265626 8.222656-1.648437 2.527344-3.421874 5.058594-5.230468 7.535157-12.558594-7.949219-27.203125-11.980469-42.066406-11.574219-18.511719-.269531-36.546876 5.890625-51.03125 17.425781-24.511719 19.445313-59.191407 19.445313-83.703126 0-14.425781-11.523437-32.402343-17.683593-50.863281-17.425781-18.484375-.269531-36.488281 5.886719-50.9375 17.414062-11.765625 9.703126-26.617187 14.875-41.863281 14.585938-11.648438.390625-23.152344-2.671875-33.0625-8.800781-.800781-.902344-1.601562-1.871094-2.5625-3.199219-1.824219-2.113281-3.488281-4.304688-5.277344-6.824219l-1.496094-2c-3.847656-5.332031-7.460937-10.867187-10.847656-16.601562-5.414062-8.914063-10.132812-18.230469-14.113281-27.871094-1.390625-3.246094-2.625-6.503906-4-10.101563-.175781-.472656-.328125-.992187-.496094-1.464843 7.480469 2.773437 14.515625 6.632812 20.871094 11.457031 14.464844 11.535156 32.484375 17.6875 50.984375 17.40625 18.484375.269531 36.492188-5.886719 50.945312-17.414062 11.761719-9.703126 26.609376-14.878907 41.855469-14.585938 15.21875-.289062 30.035157 4.878906 41.773438 14.566406 29.988281 23.21875 71.886719 23.21875 101.875 0 24.542969-19.445312 59.238281-19.445312 83.78125 0 6.296875 4.644532 13.082031 8.582032 20.234375 11.746094-.265625.542969-.472656 1.015625-.800782 1.597656-.710937 1.554688-1.511718 3.058594-2.304687 4.578125zm19.871094-53.015625c-.679688 3.078125-1.511719 6.167969-2.488281 9.457032-.796876 3.117187-1.710938 6.238281-2.972657 9.757812-.738281 2.496094-1.601562 5-2.609375 7.496094-.671875 1.785156-1.449218 3.664062-2.175781 5.488281-6.253906-2.757813-12.179687-6.203125-17.671875-10.273437-30.015625-23.214844-71.929688-23.214844-101.945312 0-24.511719 19.445312-59.191407 19.445312-83.703126 0-14.429687-11.511719-32.40625-17.664063-50.863281-17.398438-18.484375-.269531-36.488281 5.886719-50.9375 17.414062-11.765625 9.703126-26.617187 14.875-41.863281 14.585938-15.246094.292969-30.09375-4.878906-41.863281-14.574219-10.410157-8.078125-22.570313-13.59375-35.503907-16.105469-.046874-.199218-.113281-.390624-.167968-.601562-.601563-2.328125-1.199219-4.726562-1.65625-7.054688l-.382813-1.664062c-.28125-1.265625-.5625-2.519531-.867187-4.28125-.597656-2.648438-1.054688-5.367188-1.519532-8.167969-.464843-2.796875-.871093-5.839843-1.296874-9.214843-.460938-4-.847657-8.089844-1.0625-12l-.113282-3.433594c-.070312-.796875 0-1.664063-.085937-2.476563 12.296875 1.4375 23.933593 6.34375 33.550781 14.140625 14.457031 11.542969 32.472656 17.703125 50.96875 17.433594 18.484375.265625 36.484375-5.886719 50.9375-17.414062 11.765625-9.707032 26.613281-14.878907 41.863281-14.585938 15.246094-.289062 30.089844 4.882812 41.855469 14.585938 29.988281 23.21875 71.882812 23.21875 101.871094 0 24.566406-19.429688 59.261718-19.429688 83.824218 0 11.433594 8.914062 25.019532 14.644531 39.382813 16.613281-.039063.191406-.046875.367187-.085937.570312-.664063 3.734375-1.488282 7.429688-2.417969 11.703125zm0 0"/>
  <path fill="#FF5722" d="m72.011719 192h96v16h-96zm0 0"/>
  <path fill="#FF5722" d="m40.011719 192h16v16h-16zm0 0"/></svg>
