<?xml version="1.0" encoding="iso-8859-1"?>
<!-- Generator: Adobe Illustrator 19.0.0, SVG Export Plug-In . SVG Version: 6.00 Build 0)  -->
<svg version="1.1" id="Capa_1" xmlns="http://www.w3.org/2000/svg" xmlns:xlink="http://www.w3.org/1999/xlink" x="0px" y="0px"
	 viewBox="0 0 512.001 512.001" style="enable-background:new 0 0 512.001 512.001;" xml:space="preserve">
<path style="fill:#FFD311;" d="M477.591,184.444c7.609,23.371,26.864,46.042,26.864,71.975s-19.255,48.604-26.864,71.974
	c-7.92,24.302-5.901,53.883-20.575,74.07c-14.829,20.42-43.712,27.563-64.133,42.393c-20.187,14.752-35.793,40.064-60.095,47.905
	c-23.448,7.609-50.856-3.416-76.788-3.416s-53.34,11.025-76.788,3.416c-24.302-7.842-39.908-33.153-60.095-47.905
	c-20.42-14.829-49.302-21.972-64.133-42.393c-14.674-20.187-12.656-49.769-20.575-74.07C26.8,305.022,7.544,282.35,7.544,256.419
	c0-25.932,19.255-48.604,26.864-71.975c7.92-24.302,5.901-53.883,20.575-74.07c14.829-20.42,43.712-27.563,64.133-42.393
	c20.187-14.752,35.793-40.063,60.095-47.905c23.448-7.609,50.856,3.416,76.788,3.416s53.34-11.025,76.788-3.416
	c24.302,7.842,39.908,33.153,60.095,47.905c20.42,14.829,49.303,21.972,64.133,42.393
	C471.691,130.56,469.672,160.141,477.591,184.444z"/>
<path style="fill:#FDB51E;" d="M148.155,402.464c-14.674-20.187-12.656-49.769-20.575-74.071
	c-7.609-23.37-26.864-46.042-26.864-71.974c0-25.933,19.255-48.604,26.864-71.975c7.92-24.302,5.901-53.883,20.575-74.07
	c14.83-20.42,43.712-27.563,64.133-42.393c18.159-13.27,32.668-34.971,53.079-44.929c-3.136,0.265-6.263,0.44-9.366,0.44
	c-25.933,0-53.34-11.026-76.788-3.416c-24.302,7.842-39.908,33.153-60.095,47.905c-20.42,14.83-49.302,21.972-64.133,42.393
	c-14.674,20.187-12.656,49.768-20.575,74.07c-7.61,23.371-26.864,46.042-26.864,71.975c0,25.933,19.255,48.604,26.864,71.974
	c7.92,24.302,5.901,53.883,20.575,74.071c14.83,20.42,43.712,27.563,64.133,42.393c20.187,14.752,35.793,40.064,60.095,47.906
	c23.448,7.609,50.856-3.416,76.788-3.416c3.103,0,6.23,0.174,9.366,0.44c-20.41-9.957-34.92-31.659-53.079-44.929
	C191.867,430.026,162.984,422.883,148.155,402.464z"/>
<g>
	<path style="fill:#231F20;" d="M495.771,206.055c-4.331-8.443-8.419-16.416-11.007-24.366c-2.764-8.483-4.243-17.684-5.808-27.425
		c-2.735-17.015-5.563-34.611-15.835-48.742c-10.41-14.333-26.378-22.461-41.819-30.321c-8.696-4.426-16.913-8.608-23.966-13.73
		c-6.918-5.056-13.322-11.5-20.103-18.322c-12.284-12.36-24.987-25.141-42.113-30.668c-16.375-5.314-33.874-2.585-50.795,0.054
		c-9.435,1.472-19.19,2.994-28.322,2.994c-9.132,0-18.887-1.522-28.322-2.994c-16.922-2.639-34.42-5.368-50.783-0.058
		c-17.138,5.53-29.841,18.311-42.126,30.672c-6.781,6.822-13.186,13.266-20.103,18.322l8.902,12.183
		c7.879-5.758,15.008-12.931,21.904-19.868c11.522-11.593,22.405-22.544,36.068-26.952c12.95-4.203,27.941-1.865,43.813,0.611
		c10.003,1.56,20.346,3.174,30.647,3.174c10.301,0,20.645-1.614,30.648-3.174c15.871-2.476,30.864-4.813,43.824-0.608
		c13.651,4.405,24.536,15.355,36.057,26.948c6.895,6.937,14.024,14.11,21.921,19.881c8.034,5.835,17.171,10.485,26.007,14.982
		c14.489,7.375,28.177,14.341,36.457,25.743c8.153,11.217,10.578,26.299,13.143,42.267c1.588,9.883,3.232,20.103,6.359,29.703
		c2.959,9.092,7.519,17.981,11.927,26.578c7.491,14.607,14.566,28.403,14.566,43.062c0,14.658-7.076,28.456-14.566,43.062
		c-4.409,8.597-8.968,17.486-11.926,26.576c-3.128,9.602-4.772,19.822-6.36,29.705c-2.566,15.968-4.99,31.05-13.145,42.27
		c-8.279,11.399-21.965,18.365-36.455,25.74c-8.835,4.496-17.972,9.147-26.007,14.981l8.866,12.209
		c7.072-5.136,15.287-9.317,23.984-13.743c15.442-7.859,31.41-15.987,41.817-30.319c10.275-14.133,13.102-31.729,15.837-48.744
		c1.566-9.741,3.044-18.942,5.809-27.427c2.587-7.947,6.676-15.921,11.006-24.363c7.979-15.559,16.229-31.646,16.229-49.947
		C512,237.7,503.75,221.613,495.771,206.055z"/>
	<path style="fill:#231F20;" d="M366.529,458.216c-11.522,11.593-22.405,22.544-36.069,26.953
		c-12.948,4.204-27.94,1.864-43.811-0.612c-10.003-1.56-20.347-3.174-30.649-3.174c-10.302,0-20.645,1.614-30.648,3.174
		c-15.873,2.476-30.863,4.814-43.824,0.608c-13.652-4.405-24.536-15.355-36.057-26.949c-6.895-6.937-14.024-14.11-21.921-19.881
		c-8.034-5.835-17.171-10.485-26.006-14.981c-14.49-7.375-28.177-14.341-36.458-25.743c-8.154-11.216-10.578-26.299-13.144-42.267
		c-1.588-9.883-3.231-20.103-6.359-29.703c-2.959-9.092-7.518-17.981-11.927-26.578c-7.49-14.607-14.566-28.404-14.566-43.063
		c0-14.657,7.076-28.455,14.566-43.061c4.409-8.597,8.968-17.487,11.926-26.576c3.129-9.602,4.772-19.822,6.36-29.705
		c2.566-15.968,4.99-31.05,13.146-42.27c8.278-11.398,21.964-18.364,36.453-25.739c2.228-1.134,4.456-2.267,6.663-3.418
		l-6.973-13.382c-2.165,1.129-4.35,2.24-6.535,3.352c-15.442,7.859-31.409,15.986-41.815,30.317
		c-10.275,14.134-13.102,31.729-15.837,48.745c-1.565,9.741-3.044,18.942-5.809,27.427c-2.587,7.947-6.677,15.922-11.006,24.364
		C8.25,221.614,0,237.7,0,256.001s8.25,34.389,16.229,49.946c4.33,8.443,8.419,16.417,11.007,24.366
		c2.764,8.483,4.243,17.684,5.808,27.425c2.735,17.015,5.563,34.611,15.835,48.741c10.409,14.334,26.377,22.461,41.819,30.321
		c8.697,4.426,16.912,8.608,23.966,13.73c6.919,5.056,13.323,11.5,20.103,18.322c12.284,12.36,24.988,25.141,42.114,30.668
		c16.374,5.313,33.873,2.584,50.795-0.055c9.435-1.472,19.191-2.994,28.322-2.994c9.132,0,18.887,1.522,28.323,2.994
		c9.831,1.533,19.856,3.097,29.74,3.097c7.129,0,14.186-0.814,21.042-3.039c17.138-5.531,29.841-18.312,42.126-30.672
		c1.868-1.88,3.734-3.758,5.611-5.603l-10.58-10.758C370.346,454.377,368.438,456.295,366.529,458.216z"/>
</g>
<g>
	<rect x="38.597" y="248.456" style="fill:#FFFFFF;" width="15.528" height="15.089"/>
	<polygon style="fill:#FFFFFF;" points="124.614,196.273 165.156,317.896 191.559,317.896 232.1,196.273 217.785,191.502 
		180.684,302.807 176.031,302.807 138.929,191.502 	"/>
	<rect x="263.985" y="193.884" style="fill:#FFFFFF;" width="15.089" height="124.232"/>
	<path style="fill:#FFFFFF;" d="M372.463,271.31c9.944,0,15.309-7.887,15.309-15.309v-46.585c0-9.944-7.887-15.309-15.309-15.309
		h-69.658v124.007h15.089V271.31H372.463z M317.894,209.196h54.569c0.001,0,0.103,0.029,0.217,0.065
		c0.002,0.046,0.003,0.098,0.003,0.154v46.585c0,0-0.028,0.102-0.065,0.217c-0.046,0.002-0.098,0.003-0.154,0.003h-54.569
		L317.894,209.196L317.894,209.196z"/>
	<rect x="186.126" y="46.587" style="fill:#FFFFFF;" width="15.528" height="15.089"/>
	<rect x="310.348" y="46.587" style="fill:#FFFFFF;" width="15.529" height="15.089"/>
	<rect x="186.126" y="450.325" style="fill:#FFFFFF;" width="15.528" height="15.089"/>
</g>
<g>
	<rect x="77.422" y="372.687" style="fill:#231F20;" width="15.528" height="15.089"/>
	<rect x="419.048" y="372.687" style="fill:#231F20;" width="15.527" height="15.089"/>
	<rect x="77.422" y="124.234" style="fill:#231F20;" width="15.528" height="15.089"/>
</g>
<rect x="457.867" y="248.456" style="fill:#FFFFFF;" width="15.529" height="15.089"/>
<rect x="419.048" y="124.234" style="fill:#231F20;" width="15.527" height="15.089"/>
<rect x="310.348" y="450.325" style="fill:#FFFFFF;" width="15.529" height="15.089"/>
<g>
	<rect x="193.882" y="155.287" style="fill:#231F20;" width="194.103" height="15.089"/>
	<rect x="124.01" y="155.287" style="fill:#231F20;" width="46.584" height="15.089"/>
	<rect x="124.01" y="341.624" style="fill:#231F20;" width="263.985" height="15.089"/>
</g>
<g>
</g>
<g>
</g>
<g>
</g>
<g>
</g>
<g>
</g>
<g>
</g>
<g>
</g>
<g>
</g>
<g>
</g>
<g>
</g>
<g>
</g>
<g>
</g>
<g>
</g>
<g>
</g>
<g>
</g>
</svg>
